<svg xmlns="http://www.w3.org/2000/svg" xmlns:xlink="http://www.w3.org/1999/xlink" contentStyleType="text/css" data-diagram-type="ACTIVITY" height="986px" preserveAspectRatio="none" style="width:568px;height:986px;background:#FFFFFF;" version="1.1" viewBox="0 0 568 986" width="568px" zoomAndPan="magnify"><title>Symphony auto-merge - 24 h veto window (policy: auto-with-veto)</title><defs/><g><text fill="#000000" font-family="Helvetica" font-size="14" font-weight="bold" lengthAdjust="spacing" textLength="525.7178" x="20" y="32.9951">Symphony auto-merge - 24 h veto window (policy: auto-with-veto)</text><ellipse cx="294.2144" cy="57.2969" fill="#222222" rx="10" ry="10" style="stroke:#222222;stroke-width:1;"/><rect fill="#F1F1F1" height="47.9375" rx="12.5" ry="12.5" style="stroke:#181818;stroke-width:0.5;" width="179.5039" x="204.4624" y="87.2969"/><text fill="#000000" font-family="Helvetica" font-size="12" lengthAdjust="spacing" textLength="159.5039" x="214.4624" y="108.4355">QA stage transitions ticket</text><text fill="#000000" font-family="Helvetica" font-size="12" lengthAdjust="spacing" textLength="109.9629" x="214.4624" y="122.4043">to ready-to-merge</text><rect fill="#F1F1F1" height="33.9688" rx="12.5" ry="12.5" style="stroke:#181818;stroke-width:0.5;" width="179.416" x="204.5063" y="155.2344"/><text fill="#000000" font-family="Helvetica" font-size="12" lengthAdjust="spacing" textLength="159.416" x="214.5063" y="176.373">Symphony tick finds ticket</text><polygon fill="#F1F1F1" points="210.9624,209.2031,377.4663,209.2031,389.4663,222.0078,377.4663,234.8125,210.9624,234.8125,198.9624,222.0078,210.9624,209.2031" style="stroke:#181818;stroke-width:0.5;"/><text fill="#000000" font-family="Helvetica" font-size="11" lengthAdjust="spacing" textLength="166.5039" x="210.9624" y="219.4136">veto deadline comment exists</text><text fill="#000000" font-family="Helvetica" font-size="11" lengthAdjust="spacing" textLength="113.373" x="210.9624" y="232.2183">on the Kaneo ticket?</text><text fill="#000000" font-family="Helvetica" font-size="11" lengthAdjust="spacing" textLength="13.7017" x="185.2607" y="219.4136">no</text><text fill="#000000" font-family="Helvetica" font-size="11" lengthAdjust="spacing" textLength="19.0083" x="389.4663" y="219.4136">yes</text><rect fill="#F1F1F1" height="61.9063" rx="12.5" ry="12.5" style="stroke:#181818;stroke-width:0.5;" width="241.2324" x="52.8374" y="244.8125"/><text fill="#000000" font-family="Helvetica" font-size="12" lengthAdjust="spacing" textLength="169.1953" x="62.8374" y="265.9512">post to ops Telegram topic -</text><text fill="#000000" font-family="Helvetica" font-size="12" lengthAdjust="spacing" textLength="221.2324" x="62.8374" y="279.9199">"PR #N ready to auto-merge in 24 h.</text><text fill="#000000" font-family="Helvetica" font-size="12" lengthAdjust="spacing" textLength="191.9824" x="62.8374" y="293.8887">Reply /reject TASK-ID to cancel"</text><rect fill="#F1F1F1" height="61.9063" rx="12.5" ry="12.5" style="stroke:#181818;stroke-width:0.5;" width="235.5781" x="55.6646" y="326.7188"/><text fill="#000000" font-family="Helvetica" font-size="12" lengthAdjust="spacing" textLength="190.3008" x="65.6646" y="347.8574">write "Window closes at &lt;iso&gt;"</text><text fill="#000000" font-family="Helvetica" font-size="12" lengthAdjust="spacing" textLength="136.7695" x="65.6646" y="361.8262">comment on the ticket</text><text fill="#000000" font-family="Helvetica" font-size="12" lengthAdjust="spacing" textLength="215.5781" x="65.6646" y="375.7949">(durable across Symphony restarts)</text><rect fill="#F1F1F1" height="33.9688" rx="12.5" ry="12.5" style="stroke:#181818;stroke-width:0.5;" width="201.8105" x="314.0698" y="244.8125"/><text fill="#000000" font-family="Helvetica" font-size="12" lengthAdjust="spacing" textLength="181.8105" x="324.0698" y="265.9512">parse deadline from comment</text><polygon fill="#F1F1F1" points="294.2144,394.625,306.2144,406.625,294.2144,418.625,282.2144,406.625,294.2144,394.625" style="stroke:#181818;stroke-width:0.5;"/><rect fill="#F1F1F1" height="33.9688" rx="12.5" ry="12.5" style="stroke:#181818;stroke-width:0.5;" width="178.2031" x="205.1128" y="482.625"/><text fill="#000000" font-family="Helvetica" font-size="12" lengthAdjust="spacing" textLength="158.2031" x="215.1128" y="503.7637">next Symphony tick (30 s)</text><rect fill="#F1F1F1" height="33.9688" rx="12.5" ry="12.5" style="stroke:#181818;stroke-width:0.5;" width="186.0195" x="201.2046" y="586.6055"/><text fill="#000000" font-family="Helvetica" font-size="12" lengthAdjust="spacing" textLength="166.0195" x="211.2046" y="607.7441">ticket -&gt; review (cancelled)</text><ellipse cx="294.2144" cy="659.6875" fill="none" rx="11" ry="11" style="stroke:#222222;stroke-width:1;"/><ellipse cx="294.2144" cy="659.6875" fill="#222222" rx="6" ry="6" style="stroke:#222222;stroke-width:1;"/><polygon fill="#F1F1F1" points="231.2759,536.5938,357.1528,536.5938,369.1528,549.3984,357.1528,562.2031,231.2759,562.2031,219.2759,549.3984,231.2759,536.5938" style="stroke:#181818;stroke-width:0.5;"/><text fill="#000000" font-family="Helvetica" font-size="11" lengthAdjust="spacing" textLength="19.0083" x="298.2144" y="572.4136">yes</text><text fill="#000000" font-family="Helvetica" font-size="11" lengthAdjust="spacing" textLength="91.937" x="231.2759" y="546.8042">/reject received?</text><text fill="#000000" font-family="Helvetica" font-size="11" lengthAdjust="spacing" textLength="125.877" x="231.2759" y="559.6089">(cancel label on ticket)</text><polygon fill="#F1F1F1" points="294.2144,438.625,306.2144,450.625,294.2144,462.625,282.2144,450.625,294.2144,438.625" style="stroke:#181818;stroke-width:0.5;"/><polygon fill="#F1F1F1" points="246.417,712.6875,342.0117,712.6875,354.0117,724.6875,342.0117,736.6875,246.417,736.6875,234.417,724.6875,246.417,712.6875" style="stroke:#181818;stroke-width:0.5;"/><text fill="#000000" font-family="Helvetica" font-size="11" lengthAdjust="spacing" textLength="95.5947" x="246.417" y="728.4956">deadline passed?</text><text fill="#000000" font-family="Helvetica" font-size="11" lengthAdjust="spacing" textLength="13.7017" x="354.0117" y="722.0933">no</text><rect fill="#F1F1F1" height="33.9688" rx="12.5" ry="12.5" style="stroke:#181818;stroke-width:0.5;" width="228.5703" x="179.9292" y="778.0864"/><text fill="#000000" font-family="Helvetica" font-size="12" lengthAdjust="spacing" textLength="74.4082" x="189.9292" y="799.2251">gh pr merge</text><text fill="#000000" font-family="Helvetica" font-size="12" lengthAdjust="spacing" text-decoration="line-through" textLength="42.6855" x="268.1519" y="799.2251">squash</text><text fill="#000000" font-family="Helvetica" font-size="12" lengthAdjust="spacing" textLength="83.8477" x="314.6519" y="799.2251">delete-branch</text><rect fill="#F1F1F1" height="33.9688" rx="12.5" ry="12.5" style="stroke:#181818;stroke-width:0.5;" width="105.6348" x="241.397" y="832.0552"/><text fill="#000000" font-family="Helvetica" font-size="12" lengthAdjust="spacing" textLength="85.6348" x="251.397" y="853.1938">ticket -&gt; done</text><rect fill="#F1F1F1" height="47.9375" rx="12.5" ry="12.5" style="stroke:#181818;stroke-width:0.5;" width="221.6914" x="183.3687" y="886.0239"/><text fill="#000000" font-family="Helvetica" font-size="12" lengthAdjust="spacing" textLength="185.4727" x="193.3687" y="907.1626">last-known-good tag advanced</text><text fill="#000000" font-family="Helvetica" font-size="12" lengthAdjust="spacing" textLength="201.6914" x="193.3687" y="921.1313">(non-loop tasks; safe-mode hook)</text><ellipse cx="294.2144" cy="964.9614" fill="none" rx="11" ry="11" style="stroke:#222222;stroke-width:1;"/><ellipse cx="294.2144" cy="964.9614" fill="#222222" rx="6" ry="6" style="stroke:#222222;stroke-width:1;"/><line style="stroke:#181818;stroke-width:1;" x1="294.2144" x2="294.2144" y1="67.2969" y2="87.2969"/><polygon fill="#181818" points="290.2144,77.2969,294.2144,87.2969,298.2144,77.2969,294.2144,81.2969" style="stroke:#181818;stroke-width:1;"/><line style="stroke:#181818;stroke-width:1;" x1="294.2144" x2="294.2144" y1="135.2344" y2="155.2344"/><polygon fill="#181818" points="290.2144,145.2344,294.2144,155.2344,298.2144,145.2344,294.2144,149.2344" style="stroke:#181818;stroke-width:1;"/><line style="stroke:#181818;stroke-width:1;" x1="173.4536" x2="173.4536" y1="306.7188" y2="326.7188"/><polygon fill="#181818" points="169.4536,316.7188,173.4536,326.7188,177.4536,316.7188,173.4536,320.7188" style="stroke:#181818;stroke-width:1;"/><line style="stroke:#181818;stroke-width:1;" x1="198.9624" x2="173.4536" y1="222.0078" y2="222.0078"/><line style="stroke:#181818;stroke-width:1;" x1="173.4536" x2="173.4536" y1="222.0078" y2="244.8125"/><polygon fill="#181818" points="169.4536,234.8125,173.4536,244.8125,177.4536,234.8125,173.4536,238.8125" style="stroke:#181818;stroke-width:1;"/><line style="stroke:#181818;stroke-width:1;" x1="389.4663" x2="414.9751" y1="222.0078" y2="222.0078"/><line style="stroke:#181818;stroke-width:1;" x1="414.9751" x2="414.9751" y1="222.0078" y2="244.8125"/><polygon fill="#181818" points="410.9751,234.8125,414.9751,244.8125,418.9751,234.8125,414.9751,238.8125" style="stroke:#181818;stroke-width:1;"/><line style="stroke:#181818;stroke-width:1;" x1="173.4536" x2="173.4536" y1="388.625" y2="406.625"/><line style="stroke:#181818;stroke-width:1;" x1="173.4536" x2="282.2144" y1="406.625" y2="406.625"/><polygon fill="#181818" points="272.2144,402.625,282.2144,406.625,272.2144,410.625,276.2144,406.625" style="stroke:#181818;stroke-width:1;"/><line style="stroke:#181818;stroke-width:1;" x1="414.9751" x2="414.9751" y1="278.7813" y2="406.625"/><line style="stroke:#181818;stroke-width:1;" x1="414.9751" x2="306.2144" y1="406.625" y2="406.625"/><polygon fill="#181818" points="316.2144,402.625,306.2144,406.625,316.2144,410.625,312.2144,406.625" style="stroke:#181818;stroke-width:1;"/><line style="stroke:#181818;stroke-width:1;" x1="294.2144" x2="294.2144" y1="189.2031" y2="209.2031"/><polygon fill="#181818" points="290.2144,199.2031,294.2144,209.2031,298.2144,199.2031,294.2144,203.2031" style="stroke:#181818;stroke-width:1;"/><line style="stroke:#181818;stroke-width:1;" x1="294.2144" x2="294.2144" y1="620.5742" y2="648.6875"/><polygon fill="#181818" points="290.2144,638.6875,294.2144,648.6875,298.2144,638.6875,294.2144,642.6875" style="stroke:#181818;stroke-width:1;"/><line style="stroke:#181818;stroke-width:1;" x1="294.2144" x2="294.2144" y1="562.2031" y2="586.6055"/><polygon fill="#181818" points="290.2144,576.6055,294.2144,586.6055,298.2144,576.6055,294.2144,580.6055" style="stroke:#181818;stroke-width:1;"/><line style="stroke:#181818;stroke-width:1;" x1="369.1528" x2="397.2241" y1="549.3984" y2="549.3984"/><polygon fill="#181818" points="393.2241,618.6875,397.2241,628.6875,401.2241,618.6875,397.2241,622.6875" style="stroke:#181818;stroke-width:1;"/><line style="stroke:#181818;stroke-width:1;" x1="397.2241" x2="397.2241" y1="549.3984" y2="692.6875"/><line style="stroke:#181818;stroke-width:1;" x1="397.2241" x2="294.2144" y1="692.6875" y2="692.6875"/><line style="stroke:#181818;stroke-width:1;" x1="294.2144" x2="294.2144" y1="692.6875" y2="712.6875"/><polygon fill="#181818" points="290.2144,702.6875,294.2144,712.6875,298.2144,702.6875,294.2144,706.6875" style="stroke:#181818;stroke-width:1;"/><line style="stroke:#181818;stroke-width:1;" x1="294.2144" x2="294.2144" y1="516.5938" y2="536.5938"/><polygon fill="#181818" points="290.2144,526.5938,294.2144,536.5938,298.2144,526.5938,294.2144,530.5938" style="stroke:#181818;stroke-width:1;"/><line style="stroke:#181818;stroke-width:1;" x1="294.2144" x2="294.2144" y1="462.625" y2="482.625"/><polygon fill="#181818" points="290.2144,472.625,294.2144,482.625,298.2144,472.625,294.2144,476.625" style="stroke:#181818;stroke-width:1;"/><line style="stroke:#181818;stroke-width:1;" x1="354.0117" x2="421.2241" y1="724.6875" y2="724.6875"/><polygon fill="#181818" points="417.2241,597.8008,421.2241,587.8008,425.2241,597.8008,421.2241,593.8008" style="stroke:#181818;stroke-width:1;"/><line style="stroke:#181818;stroke-width:1;" x1="421.2241" x2="421.2241" y1="450.625" y2="724.6875"/><line style="stroke:#181818;stroke-width:1;" x1="421.2241" x2="306.2144" y1="450.625" y2="450.625"/><polygon fill="#181818" points="316.2144,446.625,306.2144,450.625,316.2144,454.625,312.2144,450.625" style="stroke:#181818;stroke-width:1;"/><line style="stroke:#181818;stroke-width:1;" x1="294.2144" x2="294.2144" y1="418.625" y2="438.625"/><polygon fill="#181818" points="290.2144,428.625,294.2144,438.625,298.2144,428.625,294.2144,432.625" style="stroke:#181818;stroke-width:1;"/><line style="stroke:#181818;stroke-width:1;" x1="294.2144" x2="294.2144" y1="736.6875" y2="778.0864"/><polygon fill="#181818" points="290.2144,768.0864,294.2144,778.0864,298.2144,768.0864,294.2144,772.0864" style="stroke:#181818;stroke-width:1;"/><text fill="#000000" font-family="Helvetica" font-size="11" lengthAdjust="spacing" textLength="19.0083" x="298.2144" y="757.9922">yes</text><line style="stroke:#181818;stroke-width:1;" x1="294.2144" x2="294.2144" y1="812.0552" y2="832.0552"/><polygon fill="#181818" points="290.2144,822.0552,294.2144,832.0552,298.2144,822.0552,294.2144,826.0552" style="stroke:#181818;stroke-width:1;"/><line style="stroke:#181818;stroke-width:1;" x1="294.2144" x2="294.2144" y1="866.0239" y2="886.0239"/><polygon fill="#181818" points="290.2144,876.0239,294.2144,886.0239,298.2144,876.0239,294.2144,880.0239" style="stroke:#181818;stroke-width:1;"/><line style="stroke:#181818;stroke-width:1;" x1="294.2144" x2="294.2144" y1="933.9614" y2="953.9614"/><polygon fill="#181818" points="290.2144,943.9614,294.2144,953.9614,298.2144,943.9614,294.2144,947.9614" style="stroke:#181818;stroke-width:1;"/><!--SRC=[LP91Rzim38Nl_XKFsSKvQ1ksdPAYHO5Xs52WsDe2k_IYMdIiHHOzKOcRVpygZjFiOiZI8_dnaTddG7Wyz4F7yG2xosnwIXk2mQSlwB2dp1XzT3oY7ZZuvh2QPAFFdIdFowgIhO-3JRQ7T5QbFcxGsY1qyUAejRkGlt7CzxOdVAUWqRwn6fvjojNgrotqfBLpib5yzXm5gjXIhfGYaNK7CmEkgzKPksZGAkGiNrU-HNraTneLV2GqtFSKC-ZLIvRdo16v8zpPI7mAkrcMguWwQbF0Qc39q1my29ueqARqaNdm3Oo-Btu-uDtzn5La5-xvUBJllQeUQ0W7V4ZqXvgCfzl7E_FZQv4tDZOK5kjIQKm-4nQ_9wERm482ct7bXQyNgfZfJzGdLu3QxP9zqHdQ9h78soWJ7LsLvReY7GJg0ydKb4twUxQbJTpFsLKQdM-hH0FPadqLwJNZVv_hpnzHiWB5uxclH0tvFRcRvrXFZI7O5_qMu2FiSZRt1ABPfmUOQmtVUz8Dcq83kMC1w3xme8TBB8oTrtxhSmU35T72ItYP9gVvj8OkoAR3a73QPoD_TrOwFJWTPIRpeblMT2fxmt0Sos85Azbi8u_HR9WTT2bXtRwmkKfBH1EO1xsMhQmXjYNJioDqp5i5Bz3_0000]--></g></svg>