<svg xmlns="http://www.w3.org/2000/svg" xmlns:xlink="http://www.w3.org/1999/xlink" contentStyleType="text/css" data-diagram-type="DESCRIPTION" height="811px" preserveAspectRatio="none" style="width:1762px;height:811px;background:#FFFFFF;" version="1.1" viewBox="0 0 1762 811" width="1762px" zoomAndPan="magnify"><title>Coding fabric - system context</title><defs/><g><text fill="#000000" font-family="Helvetica" font-size="14" font-weight="bold" lengthAdjust="spacing" textLength="241.9307" x="753.4999" y="22.9951">Coding fabric - system context</text><!--cluster Telegram Bot API--><g class="cluster" data-entity="Telegram Bot API" data-source-line="9" data-uid="ent0003" id="cluster_Telegram Bot API"><path d="M1197.5339,418.2972 C1207.6601,403.9863 1218.3536,405.6458 1226.4811,420.2951 C1235.6462,408.1258 1246.6412,404.398 1256.107,419.974 C1263.4689,404.2347 1278.325,398.1961 1290.4158,414.9864 C1302.5228,402.1807 1312.7781,402.3485 1320.3661,419.5038 C1327.4719,405.5645 1339.6408,402.1117 1351.1238,414.3634 C1358.1098,401.769 1371.6017,402.579 1378.6473,414.296 C1388.8112,402.0921 1404.4568,402.284 1411.129,418.3131 C1420.1313,405.7802 1431.6445,402.9347 1440.4509,418.5173 C1450.2791,404.568 1459.5632,403.0171 1471.5428,416.037 C1480.469,402.5891 1493.8815,402.9589 1501.053,417.8633 C1511.0299,404.4803 1520.9633,403.0767 1530.4257,418.3899 C1539.3495,406.2808 1553.2556,405.7374 1561.308,419.4328 C1570.8666,406.2217 1582.3055,404.137 1592.6578,418.5316 C1606.365,402.9603 1617.2149,405.0943 1626.1112,423.2969 C1629.291,421.844 1631.5882,423.6277 1631.4333,426.9859 C1648.1988,435.9571 1647.0938,447.9695 1633.5234,458.9259 C1649.6918,464.182 1653.5598,475.383 1641.9217,488.528 C1654.0677,500.9135 1652.1996,516.5734 1634.1014,521.8638 C1646.9602,538.5486 1639.4178,553.4822 1619.1112,555.2969 C1622.0548,554.4815 1623.6963,555.8181 1622.8821,558.917 C1614.2887,573.2026 1599.8068,577.4045 1590.3112,559.8396 C1583.0117,573.9347 1568.9852,575.3741 1561.4016,560.1194 C1554.1825,576.8539 1545.6292,577.6609 1533.4953,564.7451 C1522.392,579.7859 1506.7088,577.8205 1499.0308,561.0357 C1493.7143,577.0712 1482.8075,577.6447 1471.4537,567.3617 C1461.967,583.1449 1448.416,581.3374 1440.5395,565.7737 C1430.4212,583.2081 1419.2299,580.2026 1407.6109,567.4084 C1401.3788,579.9726 1388.0663,581.1443 1380.1323,569.3264 C1369.8066,584.1544 1358.8735,582.0703 1351.3087,566.6918 C1338.0912,582.5089 1328.7209,576.6716 1319.5562,562.4132 C1311.4697,577.1125 1296.7846,575.1276 1289.4183,561.643 C1277.5152,573.7875 1268.0546,576.2674 1258.9356,558.7791 C1249.0945,574.3178 1238.9023,572.1436 1228.3362,559.5682 C1210.2864,573.6466 1195.5489,569.3749 1187.1112,548.2969 C1189.8475,547.3027 1191.1828,548.236 1191.0199,551.1768 C1172.9316,547.3799 1172.2864,533.3652 1182.8964,521.668 C1164.9861,514.3998 1161.6516,502.1319 1175.445,487.8734 C1161.6353,475.0782 1166.1108,462.1985 1181.5372,454.7865 C1167.2783,437.2967 1172.7327,422.1445 1194.1112,416.2969 C1196.1679,415.2506 1197.4084,416.039 1197.5339,418.2972" fill="none" style="stroke:#181818;stroke-width:1;"/><text fill="#000000" font-family="Helvetica" font-size="14" font-weight="bold" lengthAdjust="spacing" textLength="137.334" x="1337.9442" y="434.292">Telegram Bot API</text></g><!--cluster Hetzner CCX33 VM 'mnemonic-fabric'\n(tailnet-only admin plane)--><g class="cluster" data-entity="Hetzner CCX33 VM 'mnemonic-fabric'\n(tailnet-only admin plane)" data-source-line="14" data-uid="ent0006" id="cluster_Hetzner CCX33 VM 'mnemonic-fabric'\n(tailnet-only admin plane)"><polygon fill="none" points="220.1112,53.2969,230.1112,43.2969,1155.1112,43.2969,1155.1112,694.7969,1145.1112,704.7969,220.1112,704.7969,220.1112,53.2969" style="stroke:#181818;stroke-width:1;"/><line style="stroke:#181818;stroke-width:1;" x1="1145.1112" x2="1155.1112" y1="53.2969" y2="43.2969"/><line style="stroke:#181818;stroke-width:1;" x1="220.1112" x2="1145.1112" y1="53.2969" y2="53.2969"/><line style="stroke:#181818;stroke-width:1;" x1="1145.1112" x2="1145.1112" y1="53.2969" y2="704.7969"/><text fill="#000000" font-family="Helvetica" font-size="14" font-weight="bold" lengthAdjust="spacing" textLength="293.8975" x="536.6624" y="69.292">Hetzner CCX33 VM 'mnemonic-fabric'</text><text fill="#000000" font-family="Helvetica" font-size="14" font-weight="bold" lengthAdjust="spacing" textLength="206.3086" x="580.4569" y="85.5889">(tailnet-only admin plane)</text></g><!--entity Forum--><g class="entity" data-entity="Forum" data-source-line="10" data-uid="ent0004" id="entity_Forum"><rect fill="#F1F1F1" height="85.1875" rx="2.5" ry="2.5" style="stroke:#181818;stroke-width:0.5;" width="264.9932" x="1352.6112" y="462.2969"/><text fill="#000000" font-family="Helvetica" font-size="14" lengthAdjust="spacing" textLength="89.0723" x="1362.6112" y="485.292">Fabric forum</text><text fill="#000000" font-family="Helvetica" font-size="14" lengthAdjust="spacing" textLength="193.874" x="1362.6112" y="501.5889">(9 topics: core, mcp, wasm,</text><text fill="#000000" font-family="Helvetica" font-size="14" lengthAdjust="spacing" textLength="167.8086" x="1362.6112" y="517.8857">demo-client, docs, loop,</text><text fill="#000000" font-family="Helvetica" font-size="14" lengthAdjust="spacing" textLength="244.9932" x="1362.6112" y="534.1826">protocol-qa, ops, blogger-prompts)</text></g><!--entity Chan--><g class="entity" data-entity="Chan" data-source-line="11" data-uid="ent0005" id="entity_Chan"><rect fill="#F1F1F1" height="52.5938" rx="2.5" ry="2.5" style="stroke:#181818;stroke-width:0.5;" width="121.5273" x="1195.1112" y="478.2969"/><text fill="#000000" font-family="Helvetica" font-size="14" lengthAdjust="spacing" textLength="101.5273" x="1205.1112" y="501.292">Public channel</text><text fill="#000000" font-family="Helvetica" font-size="14" lengthAdjust="spacing" textLength="88.1973" x="1205.1112" y="517.5889">@mnemonik</text></g><!--entity Bot--><g class="entity" data-entity="Bot" data-source-line="15" data-uid="ent0007" id="entity_Bot"><rect fill="#F1F1F1" height="52.5938" rx="2.5" ry="2.5" style="stroke:#181818;stroke-width:0.5;" width="154.7842" x="715.6112" y="139.2969"/><text fill="#000000" font-family="Helvetica" font-size="14" lengthAdjust="spacing" textLength="126.4785" x="725.6112" y="162.292">telegram-ai-agent</text><text fill="#000000" font-family="Helvetica" font-size="14" lengthAdjust="spacing" textLength="134.7842" x="725.6112" y="178.5889">(operator bot, fork)</text></g><!--entity WM--><g class="entity" data-entity="WM" data-source-line="16" data-uid="ent0008" id="entity_WM"><rect fill="#F1F1F1" height="68.8906" rx="2.5" ry="2.5" style="stroke:#181818;stroke-width:0.5;" width="201.3574" x="362.6112" y="272.7969"/><text fill="#000000" font-family="Helvetica" font-size="14" lengthAdjust="spacing" textLength="142.9258" x="372.6112" y="295.792">workspace-manager</text><text fill="#000000" font-family="Helvetica" font-size="14" lengthAdjust="spacing" textLength="181.3574" x="372.6112" y="312.0889">+ Symphony orchestrator</text><text fill="#000000" font-family="Helvetica" font-size="14" lengthAdjust="spacing" textLength="107.2832" x="372.6112" y="328.3857">(FastAPI :8080)</text></g><!--entity CP--><g class="entity" data-entity="CP" data-source-line="17" data-uid="ent0009" id="entity_CP"><rect fill="#F1F1F1" height="52.5938" rx="2.5" ry="2.5" style="stroke:#181818;stroke-width:0.5;" width="143.6143" x="968.1112" y="280.7969"/><text fill="#000000" font-family="Helvetica" font-size="14" lengthAdjust="spacing" textLength="123.6143" x="978.1112" y="303.792">content-publisher</text><text fill="#000000" font-family="Helvetica" font-size="14" lengthAdjust="spacing" textLength="107.4814" x="978.1112" y="320.0889">(queue worker)</text></g><!--entity WD--><g class="entity" data-entity="WD" data-source-line="18" data-uid="ent0010" id="entity_WD"><rect fill="#F1F1F1" height="52.5938" rx="2.5" ry="2.5" style="stroke:#181818;stroke-width:0.5;" width="183.6592" x="420.1112" y="478.2969"/><text fill="#000000" font-family="Helvetica" font-size="14" lengthAdjust="spacing" textLength="113.2168" x="430.1112" y="501.292">fabric-watchdog</text><text fill="#000000" font-family="Helvetica" font-size="14" lengthAdjust="spacing" textLength="163.6592" x="430.1112" y="517.5889">(5-min timer, 9 checks)</text></g><!--entity Eng--><g class="entity" data-entity="Eng" data-source-line="19" data-uid="ent0011" id="entity_Eng"><rect fill="#F1F1F1" height="52.5938" rx="2.5" ry="2.5" style="stroke:#181818;stroke-width:0.5;" width="178.1904" x="784.1112" y="478.2969"/><text fill="#000000" font-family="Helvetica" font-size="14" lengthAdjust="spacing" textLength="128.3584" x="794.1112" y="501.292">claude / codex CLI</text><text fill="#000000" font-family="Helvetica" font-size="14" lengthAdjust="spacing" textLength="158.1904" x="794.1112" y="517.5889">(engine subprocesses)</text></g><!--entity MCP--><g class="entity" data-entity="MCP" data-source-line="20" data-uid="ent0012" id="entity_MCP"><rect fill="#F1F1F1" height="68.8906" rx="2.5" ry="2.5" style="stroke:#181818;stroke-width:0.5;" width="141.8779" x="997.1112" y="470.2969"/><text fill="#000000" font-family="Helvetica" font-size="14" lengthAdjust="spacing" textLength="109.4707" x="1007.1112" y="493.292">mnemonik-mcp</text><text fill="#000000" font-family="Helvetica" font-size="14" lengthAdjust="spacing" textLength="121.8779" x="1007.1112" y="509.5889">(per-spawn stdio,</text><text fill="#000000" font-family="Helvetica" font-size="14" lengthAdjust="spacing" textLength="84.5059" x="1007.1112" y="525.8857">no daemon)</text></g><!--entity Kaneo--><g class="entity" data-entity="Kaneo" data-source-line="21" data-uid="ent0013" id="entity_Kaneo"><path d="M439.6112,636.7969 C439.6112,626.7969 512.0028,626.7969 512.0028,626.7969 C512.0028,626.7969 584.3944,626.7969 584.3944,636.7969 L584.3944,678.3906 C584.3944,688.3906 512.0028,688.3906 512.0028,688.3906 C512.0028,688.3906 439.6112,688.3906 439.6112,678.3906 L439.6112,636.7969" fill="#F1F1F1" style="stroke:#181818;stroke-width:0.5;"/><path d="M439.6112,636.7969 C439.6112,646.7969 512.0028,646.7969 512.0028,646.7969 C512.0028,646.7969 584.3944,646.7969 584.3944,636.7969" fill="none" style="stroke:#181818;stroke-width:0.5;"/><text fill="#000000" font-family="Helvetica" font-size="14" lengthAdjust="spacing" textLength="124.7832" x="449.6112" y="663.792">Kaneo + Postgres</text><text fill="#000000" font-family="Helvetica" font-size="14" lengthAdjust="spacing" textLength="90.125" x="449.6112" y="680.0889">(ticket state)</text></g><!--entity VW--><g class="entity" data-entity="VW" data-source-line="22" data-uid="ent0014" id="entity_VW"><path d="M639.6112,483.7969 C639.6112,473.7969 693.8944,473.7969 693.8944,473.7969 C693.8944,473.7969 748.1776,473.7969 748.1776,483.7969 L748.1776,525.3906 C748.1776,535.3906 693.8944,535.3906 693.8944,535.3906 C693.8944,535.3906 639.6112,535.3906 639.6112,525.3906 L639.6112,483.7969" fill="#F1F1F1" style="stroke:#181818;stroke-width:0.5;"/><path d="M639.6112,483.7969 C639.6112,493.7969 693.8944,493.7969 693.8944,493.7969 C693.8944,493.7969 748.1776,493.7969 748.1776,483.7969" fill="none" style="stroke:#181818;stroke-width:0.5;"/><text fill="#000000" font-family="Helvetica" font-size="14" lengthAdjust="spacing" textLength="88.5664" x="649.6112" y="510.792">Vaultwarden</text><text fill="#000000" font-family="Helvetica" font-size="14" lengthAdjust="spacing" textLength="61.6807" x="649.6112" y="527.0889">(secrets)</text></g><!--entity OP--><g class="entity" data-entity="OP" data-source-line="7" data-uid="ent0002" id="entity_OP"><ellipse cx="1547.9437" cy="277.7969" fill="#F1F1F1" rx="8" ry="8" style="stroke:#181818;stroke-width:0.5;"/><path d="M1547.9437,285.7969 L1547.9437,312.7969 M1534.9437,293.7969 L1560.9437,293.7969 M1547.9437,312.7969 L1534.9437,327.7969 M1547.9437,312.7969 L1560.9437,327.7969" fill="none" style="stroke:#181818;stroke-width:0.5;"/><text fill="#000000" font-family="Helvetica" font-size="14" lengthAdjust="spacing" textLength="62.665" x="1516.6112" y="342.292">Operator</text></g><!--entity GH--><g class="entity" data-entity="GH" data-source-line="25" data-uid="ent0015" id="entity_GH"><path d="M12.2859,635.1188 C15.0625,629.4985 20.5534,628.5426 24.1232,634.293 C28.6605,628.6722 32.5668,630.1331 36.1344,635.3661 C39.1643,628.6025 44.1668,627.1811 48.9999,633.6072 C52.8446,628.1066 56.5792,628.9006 60.493,633.5288 C64.083,627.0875 69.836,628.3042 73.3206,633.6435 C77.6115,628.7566 81.3867,628.7793 84.4534,634.8835 C88.0106,629.0429 92.1756,628.3829 97.2488,633.0347 C101.648,628.4089 106.9274,628.8093 109.8358,634.8019 C113.6658,629.9254 117.0036,629.3821 120.3069,635.3122 C124.5832,629.1923 128.4704,629.5958 132.7976,635.2583 C136.0735,629.6261 141.3239,628.4445 145.7023,633.9848 C149.2165,628.9865 155.1078,628.8953 158.0116,634.6813 C161.1515,628.6971 166.259,628.715 169.3547,634.7232 C172.472,629.2723 176.4641,629.678 179.8232,634.4762 C186.2155,636.4679 188.5785,642.6271 182.9106,647.4818 C188.5345,649.2375 190.4232,653.6207 185.7501,658.1239 C190.9257,662.5265 190.0271,668.9645 183.4107,671.2686 C188.0291,676.0347 187.9291,679.6886 181.9226,683.1207 C177.7194,688.8614 173.2941,689.3545 168.4674,683.868 C164.8749,689.2416 159.5724,690.4822 156.0291,683.8173 C153.9927,689.2772 149.3719,690.0792 145.3689,686.0195 C141.5381,692.0895 137.0724,692.3097 133.2967,685.9658 C130.6754,693.0856 125.4257,693.6974 120.539,688.2691 C117.8132,693.5952 113.3329,694.1633 109.466,689.5389 C105.1076,696.1559 100.7499,696.1204 96.5867,689.351 C92.4799,695.1781 88.2627,693.272 85.3134,688.1583 C81.4223,693.188 76.9741,694.0835 73.2973,687.928 C69.2023,693.6989 64.4991,694.4331 60.5976,687.731 C57.3023,691.4814 51.9146,692.0842 50.2612,686.0046 C46.1988,691.8161 40.1109,690.7814 37.7769,684.2555 C33.1943,689.4149 28.1401,689.5061 24.844,682.8475 C21.266,689.6478 15.6764,687.8396 12.2505,682.6872 C6,679.5736 6.9802,673.6588 12.1845,670.4832 C6.6839,666.194 6.2929,662.1837 12.0838,657.8048 C6.624,653.844 6.8008,648.9933 13.1988,646.1687 C7.8625,642.965 7.2051,639.1831 12.2859,635.1188" fill="#F1F1F1" style="stroke:#181818;stroke-width:0.5;"/><text fill="#000000" font-family="Helvetica" font-size="14" lengthAdjust="spacing" textLength="48.5146" x="19.1112" y="654.292">GitHub</text><text fill="#000000" font-family="Helvetica" font-size="14" lengthAdjust="spacing" textLength="153.6855" x="19.1112" y="670.5889">(6 mnemonic-* repos)</text></g><!--entity Sol--><g class="entity" data-entity="Sol" data-source-line="26" data-uid="ent0016" id="entity_Sol"><path d="M1631.1239,643.0066 C1635.3554,637.9601 1639.3988,637.3265 1642.691,643.9386 C1645.5139,637.3737 1649.9368,637.1064 1654.5132,642.1533 C1658.0215,636.9979 1661.5524,638.3902 1664.6476,642.6004 C1667.8207,636.5824 1672.5214,634.9421 1677.5856,640.4838 C1681.2504,635.5497 1684.7267,635.2287 1689.0536,639.6741 C1692.2208,635.3861 1697.1752,636.0795 1699.245,640.9017 C1702.5532,635.4653 1708.7526,635.8946 1711.8633,641.1351 C1715.7352,636.1633 1719.5685,636.9605 1722.1798,642.3858 C1727.1442,636.8937 1731.0606,637.3319 1734.8809,643.6194 C1737.9278,638.3712 1742.7106,638.2022 1745.3515,644.0041 C1754.6775,646.4237 1755.9304,652.4828 1750.3678,659.6699 C1755.5149,665.7395 1753.3939,672.5475 1745.3098,673.9211 C1742.262,680.1941 1738.23,680.0549 1733.7645,675.4218 C1731.8712,682.2224 1726.4641,682.7244 1722.3009,677.6048 C1719.8051,684.5094 1714.9414,685.8767 1710.0517,679.8772 C1707.1196,684.8881 1703.7257,685.1585 1699.837,680.9354 C1697.6722,687.8509 1692.6307,688.5501 1688.0515,683.2683 C1683.6695,687.4945 1680.3165,687.0214 1677.1089,681.8942 C1672.0189,685.9084 1668.0209,686.5489 1665.2464,679.4275 C1660.5577,685.0851 1655.1595,683.0921 1652.7721,676.9869 C1649.2092,681.4606 1645.7893,681.8426 1642.034,677.2139 C1636.84,682.0402 1631.4183,680.4152 1630.5289,673.1261 C1622.9083,669.4804 1623.2246,662.5282 1629.984,658.3522 C1623.8211,653.247 1623.0089,647.0513 1631.1239,643.0066" fill="#F1F1F1" style="stroke:#181818;stroke-width:0.5;"/><text fill="#000000" font-family="Helvetica" font-size="14" lengthAdjust="spacing" textLength="100.584" x="1636.6112" y="662.792">Solana devnet</text></g><!--entity Arw--><g class="entity" data-entity="Arw" data-source-line="27" data-uid="ent0017" id="entity_Arw"><path d="M1179.5416,644.786 C1182.8808,637.8776 1187.6086,636.831 1192.5589,643.2072 C1196.7625,637.8974 1200.8687,637.6292 1205.0333,643.2517 C1208.5994,638.1517 1212.1222,638.8816 1215.4595,643.4973 C1219.0782,637.4001 1224.4765,636.128 1228.7955,642.7638 C1231.1489,635.9558 1237.4612,635.6064 1241.3656,641.1905 C1243.8435,635.2985 1248.7289,635.8185 1251.9552,640.4364 C1256.042,634.5886 1260.7477,633.9735 1264.8021,640.4701 C1268.3739,633.8118 1273.3148,633.4362 1277.3625,640.0187 C1281.4463,633.9665 1285.5137,635.4129 1288.9737,640.6596 C1292.3293,635.8781 1297.3408,636.885 1299.4253,642.0018 C1303.7227,637.3101 1307.8371,636.0967 1311.5318,642.6507 C1315.2458,638.0053 1320.6226,638.142 1323.4293,643.7079 C1326.9446,636.624 1331.5557,636.6728 1335.9079,642.9248 C1339.6198,636.8656 1345.8433,636.7152 1349.6363,642.8335 C1357.1048,646.6902 1359.0855,651.2552 1352.7506,657.9549 C1357.3482,664.8202 1356.6377,670.01 1348.35,673.1416 C1345.5831,679.3994 1340.3363,679.4775 1336.3788,674.3989 C1332.9623,680.8221 1327.5054,679.947 1324.311,674.179 C1322.1919,680.2242 1316.4286,680.605 1312.8027,675.7732 C1309.0686,681.4266 1304.1068,681.8215 1300.6514,675.4906 C1296.7835,681.3104 1291.62,681.0748 1287.5565,675.7198 C1284.4727,679.5302 1279.7676,679.3594 1277.4516,674.7935 C1273.8423,681.6534 1266.9444,680.7723 1263.3596,674.7666 C1259.9367,679.8161 1256.2742,679.4927 1253.1146,674.4981 C1250.4506,679.7283 1244.6867,680.3634 1240.9949,675.7655 C1236.4763,682.6652 1232.3525,682.2386 1228.0888,675.5239 C1223.063,681.0286 1218.5365,681.0102 1215.3835,673.6712 C1213.1077,679.6049 1209.1346,679.3063 1205.3097,675.2303 C1200.1743,680.5598 1194.8635,680.989 1191.2429,673.5602 C1187.7349,679.6065 1183.8834,680.0487 1179.8909,674.0155 C1173.9267,669.4665 1172.3432,664.0839 1179.9916,659.6301 C1171.9671,654.6965 1171.9837,650.1921 1179.5416,644.786" fill="#F1F1F1" style="stroke:#181818;stroke-width:0.5;"/><text fill="#000000" font-family="Helvetica" font-size="14" lengthAdjust="spacing" textLength="154.2666" x="1186.1112" y="662.792">Arweave testnet / Irys</text></g><!--entity LLM--><g class="entity" data-entity="LLM" data-source-line="28" data-uid="ent0018" id="entity_LLM"><path d="M1400.0635,643.9193 C1404.7212,638.4151 1409.4781,637.2538 1413.3743,644.7019 C1415.6808,638.3809 1419.823,637.6464 1424.7393,641.8959 C1429.2924,636.5819 1433.0267,635.8812 1436.7924,642.6794 C1440.1916,636.4504 1447.3113,635.7972 1451.5183,641.6987 C1454.44,636.5064 1460.5435,635.707 1463.8598,641.2449 C1468.5129,634.5384 1472.8944,635.1533 1476.9455,641.8334 C1479.842,634.926 1484.9101,634.0632 1489.581,640.1015 C1494.483,634.4334 1498.3188,634.3493 1501.7766,641.4779 C1505.728,634.7922 1510.0983,634.5867 1515.1053,640.3475 C1519.9614,633.382 1524.9038,634.8239 1528.5384,641.5463 C1532.0058,635.0058 1536.7587,635.6719 1540.4256,641.3523 C1545.2675,635.9059 1552.1579,635.4828 1554.9763,643.5338 C1558.6195,638.8718 1562.3887,637.3664 1566.2737,643.2754 C1570.9611,638.6947 1575.1239,638.143 1578.5349,644.6827 C1588.1564,644.7348 1592.3267,650.2721 1589.7199,659.5339 C1595.6248,669.4899 1589.5455,674.859 1580.0533,675.4828 C1575.6917,681.3976 1570.7707,681.1765 1566.6876,675.1705 C1563.5563,682.297 1556.8298,681.567 1553.2117,675.6744 C1550.0261,682.28 1545.2862,682.491 1540.4334,677.5137 C1537.0294,683.06 1531.9048,683.6728 1527.8159,678.3055 C1524.2502,685.747 1519.5614,685.277 1514.2223,680.2369 C1510.6069,684.8086 1506.3985,685.5217 1502.9221,680.0801 C1498.8432,687.1518 1493.6421,688.3575 1488.6335,681.0008 C1484.1962,687.2507 1480.2901,687.0122 1475.8739,680.9789 C1471.1229,687.2065 1467.0087,687.3201 1462.9571,680.297 C1459.003,685.0315 1454.315,686.5674 1450.7973,679.8344 C1446.4802,685.5863 1441.1109,683.4003 1438.6203,677.8641 C1433.6869,683.4126 1428.6981,684.2159 1425.1188,676.4871 C1420.3491,683.2783 1415.1255,682.4674 1411.8985,675.0516 C1407.9757,679.7178 1403.0047,679.761 1400.508,673.5573 C1390.3414,674.8216 1386.1257,669.051 1388.6137,659.5611 C1385.7053,650.2557 1389.2136,643.1537 1400.0635,643.9193" fill="#F1F1F1" style="stroke:#181818;stroke-width:0.5;"/><text fill="#000000" font-family="Helvetica" font-size="14" lengthAdjust="spacing" textLength="166.2158" x="1405.1112" y="662.792">Anthropic / OpenAI APIs</text></g><!--link OP to Forum--><g class="link" data-entity-1="OP" data-entity-2="Forum" data-source-line="30" data-uid="lnk19" id="link_OP_Forum"><path d="M1534.2711,351.2378 C1523.5611,384.4778 1511.5714,421.6761 1500.4314,456.2461" fill="none" id="OP-Forum" style="stroke:#181818;stroke-width:1;"/><polygon fill="#181818" points="1536.1112,345.5269,1529.5438,352.8665,1534.5778,350.2859,1537.1583,355.3199,1536.1112,345.5269" style="stroke:#181818;stroke-width:1;"/><polygon fill="#181818" points="1498.5912,461.9569,1505.1588,454.6175,1500.1247,457.1979,1497.5444,452.1638,1498.5912,461.9569" style="stroke:#181818;stroke-width:1;"/></g><!--link Forum to Bot--><g class="link" data-entity-1="Forum" data-entity-2="Bot" data-source-line="31" data-uid="lnk20" id="link_Forum_Bot"><path d="M1469.4918,456.7106 C1458.5218,428.7206 1442.6512,398.4169 1416.1112,375.2969 C1255.8012,235.6969 1004.6696,189.5522 876.6796,174.4022" fill="none" id="Forum-Bot" style="stroke:#181818;stroke-width:1;"/><polygon fill="#181818" points="1471.6812,462.2969,1472.1212,452.4579,1469.8567,457.6416,1464.6729,455.3771,1471.6812,462.2969" style="stroke:#181818;stroke-width:1;"/><polygon fill="#181818" points="870.7212,173.6969,879.1886,178.7271,875.6865,174.2846,880.129,170.7825,870.7212,173.6969" style="stroke:#181818;stroke-width:1;"/></g><!--link Bot to Eng--><g class="link" data-entity-1="Bot" data-entity-2="Eng" data-source-line="32" data-uid="lnk21" id="link_Bot_Eng"><path d="M799.0912,192.5169 C808.8512,234.3869 828.8412,319.9269 846.1112,392.2969 C853.1412,421.7469 859.9224,449.697 865.4224,472.297" fill="none" id="Bot-to-Eng" style="stroke:#181818;stroke-width:1;"/><polygon fill="#181818" points="866.8412,478.1269,868.5996,468.4363,865.6589,473.2687,860.8264,470.328,866.8412,478.1269" style="stroke:#181818;stroke-width:1;"/><text fill="#000000" font-family="Helvetica" font-size="13" lengthAdjust="spacing" textLength="98.6426" x="835.1112" y="311.8638">spawn per turn</text></g><!--link Bot to WM--><g class="link" data-entity-1="Bot" data-entity-2="WM" data-source-line="33" data-uid="lnk22" id="link_Bot_WM"><path d="M715.2812,192.1169 C689.5212,201.0369 660.8612,211.5269 635.1112,222.2969 C598.7812,237.4869 564.5873,253.9129 532.5773,270.0729" fill="none" id="Bot-to-WM" style="stroke:#181818;stroke-width:1;"/><polygon fill="#181818" points="527.2212,272.7769,537.0581,272.2916,531.6846,270.5235,533.4527,265.1501,527.2212,272.7769" style="stroke:#181818;stroke-width:1;"/><text fill="#000000" font-family="Helvetica" font-size="13" lengthAdjust="spacing" textLength="147.9575" x="636.1112" y="235.3638">cwd:DYNAMIC resolver</text></g><!--link Eng to Kaneo--><g class="link" data-entity-1="Eng" data-entity-2="Kaneo" data-source-line="34" data-uid="lnk23" id="link_Eng_Kaneo"><path d="M835.6412,531.6069 C815.6112,544.6469 790.1912,560.0469 766.1112,571.2969 C706.9912,598.9169 642.1688,620.2488 590.4288,635.4188" fill="none" id="Eng-to-Kaneo" style="stroke:#181818;stroke-width:1;"/><polygon fill="#181818" points="584.6712,637.1069,594.433,638.4131,589.4692,635.7001,592.1822,630.7363,584.6712,637.1069" style="stroke:#181818;stroke-width:1;"/><text fill="#000000" font-family="Helvetica" font-size="13" lengthAdjust="spacing" textLength="108.4688" x="747.1112" y="592.3638">Kaneo MCP tools</text></g><!--link Eng to LLM--><g class="link" data-entity-1="Eng" data-entity-2="LLM" data-source-line="35" data-uid="lnk24" id="link_Eng_LLM"><path d="M906.8812,531.6169 C927.0612,545.6869 953.8112,562.0569 980.1112,571.2969 C1006.7412,580.6469 1015.3112,574.4369 1043.1112,579.2969 C1077.2012,585.2569 1084.9912,590.4769 1119.1112,596.2969 C1231.1712,615.3969 1261.4512,605.0069 1373.1112,626.2969 C1385.4912,628.6569 1392.6692,630.176 1405.3092,633.326" fill="none" id="Eng-to-LLM" style="stroke:#181818;stroke-width:1;"/><polygon fill="#181818" points="1411.1312,634.7769,1403.3655,628.7193,1406.2795,633.5678,1401.431,636.4818,1411.1312,634.7769" style="stroke:#181818;stroke-width:1;"/></g><!--link WM to Kaneo--><g class="link" data-entity-1="WM" data-entity-2="Kaneo" data-source-line="36" data-uid="lnk25" id="link_WM_Kaneo"><path d="M362.1712,339.1369 C333.5512,353.0669 305.6912,372.7869 289.1112,400.2969 C249.8912,465.3969 246.0512,508.6669 289.1112,571.2969 C322.6412,620.0669 382.2112,640.0014 433.5812,649.0014" fill="none" id="WM-to-Kaneo" style="stroke:#181818;stroke-width:1;"/><polygon fill="#181818" points="439.4912,650.0369,431.3165,644.5437,434.5662,649.174,429.9359,652.4237,439.4912,650.0369" style="stroke:#181818;stroke-width:1;"/><text fill="#000000" font-family="Helvetica" font-size="13" lengthAdjust="spacing" textLength="112.5376" x="290.1112" y="509.3638">poll tickets (30 s)</text></g><!--link WM to Eng--><g class="link" data-entity-1="WM" data-entity-2="Eng" data-source-line="37" data-uid="lnk26" id="link_WM_Eng"><path d="M469.8512,342.2269 C475.3312,360.2869 485.0712,381.0469 502.1112,392.2969 C526.6112,408.4569 739.0712,388.8769 766.1112,400.2969 C804.2112,416.3869 832.8735,447.9926 851.7235,473.0426" fill="none" id="WM-to-Eng" style="stroke:#181818;stroke-width:1;"/><polygon fill="#181818" points="855.3312,477.8369,853.1159,468.2404,852.3248,473.8417,846.7235,473.0506,855.3312,477.8369" style="stroke:#181818;stroke-width:1;"/><text fill="#000000" font-family="Helvetica" font-size="13" lengthAdjust="spacing" textLength="163.2046" x="503.1112" y="388.3638">spawn per ticket (max 3)</text></g><!--link WM to VW--><g class="link" data-entity-1="WM" data-entity-2="VW" data-source-line="38" data-uid="lnk27" id="link_WM_VW"><path d="M426.2512,342.0569 C412.5212,358.5569 403.2812,377.9169 417.1112,392.2969 C432.9112,408.7269 602.1212,389.3469 622.1112,400.2969 C650.9112,416.0669 668.1428,443.4503 679.5728,467.9303" fill="none" id="WM-to-VW" style="stroke:#181818;stroke-width:1;"/><polygon fill="#181818" points="682.1112,473.3669,681.9279,463.5197,679.9958,468.8364,674.6792,466.9043,682.1112,473.3669" style="stroke:#181818;stroke-width:1;"/><text fill="#000000" font-family="Helvetica" font-size="13" lengthAdjust="spacing" textLength="43.1704" x="418.1112" y="388.3638">bw CLI</text></g><!--link WM to GH--><g class="link" data-entity-1="WM" data-entity-2="GH" data-source-line="39" data-uid="lnk28" id="link_WM_GH"><path d="M362.4412,323.5269 C275.6712,338.7969 159.6712,365.0969 129.1112,400.2969 C73.6212,464.2069 81.0378,567.1384 89.2878,620.1084" fill="none" id="WM-to-GH" style="stroke:#181818;stroke-width:1;"/><polygon fill="#181818" points="90.2112,626.0369,92.7785,616.5285,89.4417,621.0964,84.8738,617.7597,90.2112,626.0369" style="stroke:#181818;stroke-width:1;"/><text fill="#000000" font-family="Helvetica" font-size="13" lengthAdjust="spacing" textLength="119.3677" x="130.1112" y="509.3638">clone / PR / merge</text></g><!--link WM to Forum--><g class="link" data-entity-1="WM" data-entity-2="Forum" data-source-line="40" data-uid="lnk29" id="link_WM_Forum"><path d="M563.9112,322.5769 C618.8712,330.0469 688.1412,338.9269 750.1112,345.2969 C923.0412,363.0869 973.1612,326.8269 1140.1112,375.2969 C1155.5812,379.7869 1156.5812,388.0169 1172.1112,392.2969 C1207.0712,401.9269 1300.7612,388.6669 1335.1112,400.2969 C1373.6212,413.3369 1406.6029,435.5853 1434.5529,458.2753" fill="none" id="WM-to-Forum" style="stroke:#181818;stroke-width:1;"/><polygon fill="#181818" points="1439.2112,462.0569,1434.7448,453.279,1435.3293,458.9055,1429.7027,459.49,1439.2112,462.0569" style="stroke:#181818;stroke-width:1;"/><text fill="#000000" font-family="Helvetica" font-size="13" lengthAdjust="spacing" textLength="126.02" x="1173.1112" y="388.3638">progress messages</text></g><!--link CP to Eng--><g class="link" data-entity-1="CP" data-entity-2="Eng" data-source-line="41" data-uid="lnk30" id="link_CP_Eng"><path d="M967.8712,326.4869 C924.3312,339.0769 874.8912,356.8369 862.1112,375.2969 C841.0912,405.6769 849.6637,444.6443 859.8937,472.5143" fill="none" id="CP-to-Eng" style="stroke:#181818;stroke-width:1;"/><polygon fill="#181818" points="861.9612,478.1469,862.615,468.3197,860.2383,473.4531,855.1049,471.0764,861.9612,478.1469" style="stroke:#181818;stroke-width:1;"/><text fill="#000000" font-family="Helvetica" font-size="13" lengthAdjust="spacing" textLength="164.1313" x="863.1112" y="388.3638">spawn claude blog-writer</text></g><!--link CP to Chan--><g class="link" data-entity-1="CP" data-entity-2="Chan" data-source-line="42" data-uid="lnk31" id="link_CP_Chan"><path d="M1112.3112,316.3769 C1183.2312,325.9769 1284.2012,344.6769 1308.1112,375.2969 C1332.4012,406.4069 1308.1111,445.8202 1284.7211,473.4102" fill="none" id="CP-to-Chan" style="stroke:#181818;stroke-width:1;"/><polygon fill="#181818" points="1280.8412,477.9869,1289.7122,473.7085,1284.0745,474.173,1283.61,468.5352,1280.8412,477.9869" style="stroke:#181818;stroke-width:1;"/><text fill="#000000" font-family="Helvetica" font-size="13" lengthAdjust="spacing" textLength="91.8887" x="1316.1112" y="388.3638">publish article</text></g><!--link CP to MCP--><g class="link" data-entity-1="CP" data-entity-2="MCP" data-source-line="43" data-uid="lnk32" id="link_CP_MCP"><path d="M1038.6912,334.0569 C1038.0712,346.5169 1037.4112,361.6769 1037.1112,375.2969 C1036.9412,382.8469 1036.0912,384.8069 1037.1112,392.2969 C1040.7512,418.9769 1047.2153,442.5711 1054.3253,464.4311" fill="none" id="CP-to-MCP" style="stroke:#181818;stroke-width:1;stroke-dasharray:7.0,7.0;"/><polygon fill="#181818" points="1056.1812,470.1369,1057.2013,460.341,1054.6346,465.3821,1049.5936,462.8154,1056.1812,470.1369" style="stroke:#181818;stroke-width:1;"/><text fill="#000000" font-family="Helvetica" font-size="13" lengthAdjust="spacing" textLength="97.2524" x="1038.1112" y="388.3638">attest via stdio</text></g><!--link MCP to Sol--><g class="link" data-entity-1="MCP" data-entity-2="Sol" data-source-line="44" data-uid="lnk33" id="link_MCP_Sol"><path d="M1114.5112,539.4669 C1133.6012,551.6069 1156.5212,564.0769 1179.1112,571.2969 C1218.6312,583.9269 1230.8912,574.6069 1272.1112,579.2969 C1420.1812,596.1369 1459.5812,589.9469 1604.1112,626.2969 C1613.1912,628.5769 1616.986,629.5593 1626.136,632.6993" fill="none" id="MCP-to-Sol" style="stroke:#181818;stroke-width:1;stroke-dasharray:7.0,7.0;"/><polygon fill="#181818" points="1631.8112,634.6469,1624.5968,627.9422,1627.0819,633.0239,1622.0001,635.509,1631.8112,634.6469" style="stroke:#181818;stroke-width:1;"/></g><!--link MCP to Arw--><g class="link" data-entity-1="MCP" data-entity-2="Arw" data-source-line="45" data-uid="lnk34" id="link_MCP_Arw"><path d="M1115.2112,539.3169 C1134.2212,551.2769 1156.8912,563.6669 1179.1112,571.2969 C1192.2512,575.8069 1230.5912,570.2269 1241.1112,579.2969 C1256.9012,592.8969 1261.3183,610.9432 1262.6283,628.6432" fill="none" id="MCP-to-Arw" style="stroke:#181818;stroke-width:1;stroke-dasharray:7.0,7.0;"/><polygon fill="#181818" points="1263.0712,634.6269,1266.396,625.3562,1262.7021,629.6405,1258.4178,625.9467,1263.0712,634.6269" style="stroke:#181818;stroke-width:1;"/></g><!--link WD to Forum--><g class="link" data-entity-1="WD" data-entity-2="Forum" data-source-line="46" data-uid="lnk35" id="link_WD_Forum"><path d="M530.8312,478.0969 C550.3112,452.8669 583.3512,416.6669 622.1112,401.2969 C695.7512,372.0969 1259.4712,377.7369 1335.1112,401.2969 C1373.7812,413.3469 1406.6448,435.4085 1434.4748,458.2685" fill="none" id="WD-to-Forum" style="stroke:#181818;stroke-width:1;"/><polygon fill="#181818" points="1439.1112,462.0769,1434.6955,453.2733,1435.2475,458.9032,1429.6176,459.4552,1439.1112,462.0769" style="stroke:#181818;stroke-width:1;"/><text fill="#000000" font-family="Helvetica" font-size="13" lengthAdjust="spacing" textLength="110.2397" x="676.1112" y="388.3638">alerts (ops topic)</text></g><!--link WD to Kaneo--><g class="link" data-entity-1="WD" data-entity-2="Kaneo" data-source-line="47" data-uid="lnk36" id="link_WD_Kaneo"><path d="M512.1112,531.4169 C512.1112,557.7469 512.1112,592.7469 512.1112,620.6369" fill="none" id="WD-to-Kaneo" style="stroke:#181818;stroke-width:1;"/><polygon fill="#181818" points="512.1112,626.6369,516.1112,617.6369,512.1112,621.6369,508.1112,617.6369,512.1112,626.6369" style="stroke:#181818;stroke-width:1;"/><text fill="#000000" font-family="Helvetica" font-size="13" lengthAdjust="spacing" textLength="132.5645" x="513.1112" y="592.3638">/turn-into-task cards</text></g><!--link WD to Sol--><g class="link" data-entity-1="WD" data-entity-2="Sol" data-source-line="48" data-uid="lnk37" id="link_WD_Sol"><path d="M544.6812,531.3469 C565.5312,546.0769 593.9012,563.2469 622.1112,571.2969 C667.1012,584.1369 996.4412,575.9469 1043.1112,579.2969 C1103.8712,583.6569 1118.4812,590.3769 1179.1112,596.2969 C1367.5712,614.7169 1418.9612,586.5769 1604.1112,626.2969 C1613.8712,628.3869 1618.3414,629.4527 1628.0614,632.7627" fill="none" id="WD-to-Sol" style="stroke:#181818;stroke-width:1;"/><polygon fill="#181818" points="1633.7412,634.6969,1626.511,628.0092,1629.0081,633.0851,1623.9322,635.5821,1633.7412,634.6969" style="stroke:#181818;stroke-width:1;"/><text fill="#000000" font-family="Helvetica" font-size="13" lengthAdjust="spacing" textLength="83.0845" x="1180.1112" y="592.3638">health probe</text></g><!--link WD to Arw--><g class="link" data-entity-1="WD" data-entity-2="Arw" data-source-line="49" data-uid="lnk38" id="link_WD_Arw"><path d="M545.1912,531.5369 C566.0212,546.1469 594.1712,563.1069 622.1112,571.2969 C673.7512,586.4269 810.6212,573.4469 864.1112,579.2969 C905.0112,583.7669 914.5412,589.4669 955.1112,596.2969 C1043.7512,611.2169 1067.2412,607.3769 1155.1112,626.2969 C1166.4412,628.7369 1172.5449,630.1365 1184.1349,633.2365" fill="none" id="WD-to-Arw" style="stroke:#181818;stroke-width:1;"/><polygon fill="#181818" points="1189.9312,634.7869,1182.2703,628.5972,1185.101,633.4949,1180.2032,636.3255,1189.9312,634.7869" style="stroke:#181818;stroke-width:1;"/><text fill="#000000" font-family="Helvetica" font-size="13" lengthAdjust="spacing" textLength="78.9585" x="956.1112" y="592.3638">Irys balance</text></g><!--link WD to GH--><g class="link" data-entity-1="WD" data-entity-2="GH" data-source-line="50" data-uid="lnk39" id="link_WD_GH"><path d="M471.1112,531.3369 C448.6712,544.5469 420.0312,560.1769 393.1112,571.2969 C356.0412,586.6069 266.7768,611.6443 194.0968,631.1143" fill="none" id="WD-to-GH" style="stroke:#181818;stroke-width:1;"/><polygon fill="#181818" points="188.3012,632.6669,198.0297,634.2018,193.1309,631.3731,195.9596,626.4742,188.3012,632.6669" style="stroke:#181818;stroke-width:1;"/><text fill="#000000" font-family="Helvetica" font-size="13" lengthAdjust="spacing" textLength="95.2021" x="370.1112" y="592.3638">stale-PR check</text></g><rect fill="#DDDDDD" height="58.8906" rx="7.5" ry="7.5" style="stroke:#000000;stroke-width:1;" width="339.4443" x="1397.4861" y="732.7969"/><text fill="#000000" font-family="Helvetica" font-size="14" lengthAdjust="spacing" textLength="329.4443" x="1402.4861" y="750.792">Dashed = attestation path, disabled by default</text><text fill="#000000" font-family="Helvetica" font-size="14" lengthAdjust="spacing" textLength="308.0684" x="1402.4861" y="767.0889">(mnemonic_mcp_enabled: false; active only</text><text fill="#000000" font-family="Helvetica" font-size="14" lengthAdjust="spacing" textLength="225.8252" x="1402.4861" y="783.3857">for the content-publish pipeline)</text><!--SRC=[PLNRRXit47tVhnZe9NQZJGmOBHAr3UhAzGMrOg4kh1Om4Cnonxk4kEI6f2ohHV-zXtjHBVT54dZcUkRCAEfeXEQkrBQYHowyLfHJs8Ke3Ibdepp7B0jhRLlsd9wQrbcnyIxkuEX5HRQLaHSceURIRVju9hn4IddaZOaN2FkP6w4hCKyIjU8iOnMTfybjAvxnQq8Sw7QPPSguJKcJtyL8bKByx2ATBQydz7T6_sMdoKLV-gFpc-R17dsaw5gjmWm5UvbIezefRJaqqmTRIkDoPJIQc5BfL9YISQu5qdeNdN8c_yfJSYs0mhYg4fy3QTeOZhkwBbAIm_JBJM6GNjLihPW7-rDZaSNgTUSmntFsJvPPLyBsIk9VLZpDvt-SdjBzWjuCnYhl1_063KJMnahCdJKxuhBHbbh3LexxplTZe4aSgCbPvrpX2Tvke94AXnv1ohgl7EmTEcy1XPQLv0rRUFi7-vRkTarRExiZvrKj8NQX4FM2GmJtDFjmyk6a3xXQ7CRh56DZtYO-GftY7NtTo4OePHBVUysNXrvzs_cMewfBLy7dspnr77KZVaeVmQkezS3-wlnLIiCRqFeURwKyq_pc6lvYAss5mgR0v9I488FtBxOwT1y7bKCYS0HnEGZPMWgnr0wYi8vAJZPzW4LNVCcH2mwOvgyOYgEtj7GXLbv2cfrMQua8m55wfyxemEq-BSAMVIaM7a6Kbr5UzwkabK7ubpfURGgOV4TxbNm3vRLkiBwy6atl70J2MB8d2AV3y3A2Ptuh_2GKCK_0eElQxq9d1MXlPMFjq-80nohQi-kqRBtPpSqYoswNz4EUVnfMeFli7vAoqcwct-2OPjIp23ufRhpTWwi5CBKjP-T_VZvRNC_HIt0u0pvBRicYPtGsV8DlxB8pOO-dGX3bfMdhZA6Uza17foSKZaUJ_nNJ3-UeuMSwtLlThs1KR9DwngVBgrIeWKn0nl8tV42CbOnmtpjIUvV67e26W0qA6Gf-dNZGQBec-TRhY6u7gtGQKfH-NuWzwiCr1VhktQUk-HbnJ5EZ9yszABF50AVvZh_J55Vd1wMn4P_um2Nhp-7nQ37ozZwD9jSskZnoM9E28CDeXEWmgOLDh5ERXOm8SW590gA28JgrHphI87mZEIZhrZRBS9_4bkHrLSVid74MIlfnw8gZTXWCnngtM0Sk3C1YD_vLP4UZwhzWFx-8xGnc_J_BzuH_3GrHfoEPuSfHh8LUdI1gTIi6n-0uGn5zAVy2]--></g></svg>